<mxfile host="app.diagrams.net" modified="2023-10-25T15:32:34.087Z" agent="Mozilla/5.0 (Windows NT 10.0; Win64; x64) AppleWebKit/537.36 (KHTML, like Gecko) Chrome/118.0.0.0 Safari/537.36" etag="fK4ntXNHPs_2wsfOLF1j" version="22.0.8" type="github">
  <diagram id="C5RBs43oDa-KdzZeNtuy" name="Page-1">
    <mxGraphModel dx="2074" dy="1120" grid="0" gridSize="10" guides="1" tooltips="1" connect="1" arrows="1" fold="1" page="1" pageScale="1" pageWidth="1169" pageHeight="827" math="0" shadow="0">
      <root>
        <mxCell id="WIyWlLk6GJQsqaUBKTNV-0" />
        <mxCell id="WIyWlLk6GJQsqaUBKTNV-1" parent="WIyWlLk6GJQsqaUBKTNV-0" />
        <mxCell id="XrjM6AQatOQEKFj0JOy--3" value="" style="rounded=0;whiteSpace=wrap;html=1;" parent="WIyWlLk6GJQsqaUBKTNV-1" vertex="1">
          <mxGeometry x="739" y="32" width="211" height="252" as="geometry" />
        </mxCell>
        <mxCell id="SKNlaHl48NjNlR1u-PeY-27" style="edgeStyle=orthogonalEdgeStyle;rounded=0;orthogonalLoop=1;jettySize=auto;html=1;" edge="1" parent="WIyWlLk6GJQsqaUBKTNV-1" source="XrjM6AQatOQEKFj0JOy--4" target="SKNlaHl48NjNlR1u-PeY-12">
          <mxGeometry relative="1" as="geometry" />
        </mxCell>
        <mxCell id="SKNlaHl48NjNlR1u-PeY-28" style="edgeStyle=orthogonalEdgeStyle;rounded=0;orthogonalLoop=1;jettySize=auto;html=1;entryX=0;entryY=0.5;entryDx=0;entryDy=0;" edge="1" parent="WIyWlLk6GJQsqaUBKTNV-1" source="XrjM6AQatOQEKFj0JOy--4" target="SKNlaHl48NjNlR1u-PeY-8">
          <mxGeometry relative="1" as="geometry" />
        </mxCell>
        <mxCell id="XrjM6AQatOQEKFj0JOy--4" value="&lt;span&gt;&lt;font style=&quot;font-size: 11px;&quot;&gt;Customer&lt;/font&gt;&lt;/span&gt;" style="shape=umlActor;verticalLabelPosition=bottom;verticalAlign=top;html=1;outlineConnect=0;fontStyle=1" parent="WIyWlLk6GJQsqaUBKTNV-1" vertex="1">
          <mxGeometry x="16" y="329" width="90" height="170" as="geometry" />
        </mxCell>
        <mxCell id="XrjM6AQatOQEKFj0JOy--7" value="&lt;font size=&quot;1&quot; style=&quot;&quot;&gt;&lt;b style=&quot;font-size: 21px;&quot;&gt;Logging in&lt;/b&gt;&lt;/font&gt;" style="ellipse;whiteSpace=wrap;html=1;" parent="WIyWlLk6GJQsqaUBKTNV-1" vertex="1">
          <mxGeometry x="754" y="92" width="183" height="77" as="geometry" />
        </mxCell>
        <mxCell id="XrjM6AQatOQEKFj0JOy--14" value="&lt;font style=&quot;font-size: 21px;&quot;&gt;Logging out&lt;/font&gt;" style="ellipse;whiteSpace=wrap;html=1;fontStyle=1" parent="WIyWlLk6GJQsqaUBKTNV-1" vertex="1">
          <mxGeometry x="753" y="189" width="184" height="79" as="geometry" />
        </mxCell>
        <mxCell id="XrjM6AQatOQEKFj0JOy--22" value="Accounts" style="text;html=1;strokeColor=none;fillColor=none;align=center;verticalAlign=middle;whiteSpace=wrap;rounded=0;fontSize=14;fontStyle=1" parent="WIyWlLk6GJQsqaUBKTNV-1" vertex="1">
          <mxGeometry x="807" y="38" width="76" height="38" as="geometry" />
        </mxCell>
        <mxCell id="XrjM6AQatOQEKFj0JOy--31" value="" style="endArrow=none;html=1;rounded=0;exitX=0.5;exitY=0;exitDx=0;exitDy=0;entryX=0.5;entryY=1;entryDx=0;entryDy=0;" parent="WIyWlLk6GJQsqaUBKTNV-1" source="XrjM6AQatOQEKFj0JOy--29" edge="1">
          <mxGeometry width="50" height="50" relative="1" as="geometry">
            <mxPoint x="444" y="495" as="sourcePoint" />
            <mxPoint x="551.75" y="274" as="targetPoint" />
          </mxGeometry>
        </mxCell>
        <mxCell id="SKNlaHl48NjNlR1u-PeY-3" value="" style="rounded=0;whiteSpace=wrap;html=1;" vertex="1" parent="WIyWlLk6GJQsqaUBKTNV-1">
          <mxGeometry x="885" y="316" width="440" height="237.5" as="geometry" />
        </mxCell>
        <mxCell id="SKNlaHl48NjNlR1u-PeY-16" style="edgeStyle=orthogonalEdgeStyle;rounded=0;orthogonalLoop=1;jettySize=auto;html=1;entryX=0.5;entryY=1;entryDx=0;entryDy=0;" edge="1" parent="WIyWlLk6GJQsqaUBKTNV-1" source="SKNlaHl48NjNlR1u-PeY-1" target="SKNlaHl48NjNlR1u-PeY-3">
          <mxGeometry relative="1" as="geometry" />
        </mxCell>
        <mxCell id="SKNlaHl48NjNlR1u-PeY-1" value="&lt;b&gt;&lt;font style=&quot;font-size: 11px;&quot;&gt;Admin&lt;/font&gt;&lt;/b&gt;" style="shape=umlActor;verticalLabelPosition=bottom;verticalAlign=top;html=1;outlineConnect=0;" vertex="1" parent="WIyWlLk6GJQsqaUBKTNV-1">
          <mxGeometry x="951.5" y="615" width="90" height="170" as="geometry" />
        </mxCell>
        <mxCell id="SKNlaHl48NjNlR1u-PeY-2" value="Administration" style="text;html=1;strokeColor=none;fillColor=none;align=center;verticalAlign=middle;whiteSpace=wrap;rounded=0;fontSize=14;fontStyle=1" vertex="1" parent="WIyWlLk6GJQsqaUBKTNV-1">
          <mxGeometry x="1067" y="324" width="76" height="38" as="geometry" />
        </mxCell>
        <mxCell id="SKNlaHl48NjNlR1u-PeY-4" value="&lt;font size=&quot;1&quot; style=&quot;&quot;&gt;&lt;b style=&quot;font-size: 21px;&quot;&gt;User Account Management&lt;/b&gt;&lt;/font&gt;" style="ellipse;whiteSpace=wrap;html=1;" vertex="1" parent="WIyWlLk6GJQsqaUBKTNV-1">
          <mxGeometry x="904" y="367" width="183" height="77" as="geometry" />
        </mxCell>
        <mxCell id="SKNlaHl48NjNlR1u-PeY-8" value="" style="rounded=0;whiteSpace=wrap;html=1;" vertex="1" parent="WIyWlLk6GJQsqaUBKTNV-1">
          <mxGeometry x="288" y="496" width="211" height="311" as="geometry" />
        </mxCell>
        <mxCell id="SKNlaHl48NjNlR1u-PeY-9" value="User Interaction" style="text;html=1;strokeColor=none;fillColor=none;align=center;verticalAlign=middle;whiteSpace=wrap;rounded=0;fontSize=14;fontStyle=1" vertex="1" parent="WIyWlLk6GJQsqaUBKTNV-1">
          <mxGeometry x="337.75" y="502" width="111.5" height="38" as="geometry" />
        </mxCell>
        <mxCell id="SKNlaHl48NjNlR1u-PeY-10" value="&lt;font size=&quot;1&quot; style=&quot;&quot;&gt;&lt;b style=&quot;font-size: 21px;&quot;&gt;Seing Scores&lt;/b&gt;&lt;/font&gt;" style="ellipse;whiteSpace=wrap;html=1;" vertex="1" parent="WIyWlLk6GJQsqaUBKTNV-1">
          <mxGeometry x="302" y="544" width="183" height="77" as="geometry" />
        </mxCell>
        <mxCell id="SKNlaHl48NjNlR1u-PeY-24" style="edgeStyle=orthogonalEdgeStyle;rounded=0;orthogonalLoop=1;jettySize=auto;html=1;exitX=1;exitY=0.5;exitDx=0;exitDy=0;entryX=0.5;entryY=1;entryDx=0;entryDy=0;" edge="1" parent="WIyWlLk6GJQsqaUBKTNV-1" source="SKNlaHl48NjNlR1u-PeY-11" target="XrjM6AQatOQEKFj0JOy--3">
          <mxGeometry relative="1" as="geometry" />
        </mxCell>
        <mxCell id="SKNlaHl48NjNlR1u-PeY-11" value="&lt;font size=&quot;1&quot; style=&quot;&quot;&gt;&lt;b style=&quot;font-size: 21px;&quot;&gt;Managing Friends&lt;/b&gt;&lt;/font&gt;" style="ellipse;whiteSpace=wrap;html=1;" vertex="1" parent="WIyWlLk6GJQsqaUBKTNV-1">
          <mxGeometry x="302" y="634" width="183" height="77" as="geometry" />
        </mxCell>
        <mxCell id="SKNlaHl48NjNlR1u-PeY-12" value="" style="rounded=0;whiteSpace=wrap;html=1;" vertex="1" parent="WIyWlLk6GJQsqaUBKTNV-1">
          <mxGeometry x="206" y="38" width="412" height="308" as="geometry" />
        </mxCell>
        <mxCell id="SKNlaHl48NjNlR1u-PeY-13" value="Session Management" style="text;html=1;strokeColor=none;fillColor=none;align=center;verticalAlign=middle;whiteSpace=wrap;rounded=0;fontSize=14;fontStyle=1" vertex="1" parent="WIyWlLk6GJQsqaUBKTNV-1">
          <mxGeometry x="338.87" y="42" width="160.25" height="38" as="geometry" />
        </mxCell>
        <mxCell id="SKNlaHl48NjNlR1u-PeY-14" value="&lt;font size=&quot;1&quot; style=&quot;&quot;&gt;&lt;b style=&quot;font-size: 21px;&quot;&gt;Creating a Game&lt;/b&gt;&lt;/font&gt;" style="ellipse;whiteSpace=wrap;html=1;" vertex="1" parent="WIyWlLk6GJQsqaUBKTNV-1">
          <mxGeometry x="217" y="77" width="183" height="77" as="geometry" />
        </mxCell>
        <mxCell id="SKNlaHl48NjNlR1u-PeY-15" value="&lt;font size=&quot;1&quot; style=&quot;&quot;&gt;&lt;b style=&quot;font-size: 21px;&quot;&gt;Joining Game&lt;/b&gt;&lt;/font&gt;" style="ellipse;whiteSpace=wrap;html=1;" vertex="1" parent="WIyWlLk6GJQsqaUBKTNV-1">
          <mxGeometry x="217" y="167" width="183" height="77" as="geometry" />
        </mxCell>
        <mxCell id="SKNlaHl48NjNlR1u-PeY-17" value="&lt;font size=&quot;1&quot; style=&quot;&quot;&gt;&lt;b style=&quot;font-size: 21px;&quot;&gt;Database Management&lt;/b&gt;&lt;/font&gt;" style="ellipse;whiteSpace=wrap;html=1;" vertex="1" parent="WIyWlLk6GJQsqaUBKTNV-1">
          <mxGeometry x="904" y="460.5" width="183" height="77" as="geometry" />
        </mxCell>
        <mxCell id="SKNlaHl48NjNlR1u-PeY-18" style="edgeStyle=orthogonalEdgeStyle;rounded=0;orthogonalLoop=1;jettySize=auto;html=1;exitX=0.5;exitY=1;exitDx=0;exitDy=0;" edge="1" parent="WIyWlLk6GJQsqaUBKTNV-1" source="SKNlaHl48NjNlR1u-PeY-3" target="SKNlaHl48NjNlR1u-PeY-3">
          <mxGeometry relative="1" as="geometry" />
        </mxCell>
        <mxCell id="SKNlaHl48NjNlR1u-PeY-19" value="&lt;font size=&quot;1&quot; style=&quot;&quot;&gt;&lt;b style=&quot;font-size: 21px;&quot;&gt;Leaving Game&lt;/b&gt;&lt;/font&gt;" style="ellipse;whiteSpace=wrap;html=1;" vertex="1" parent="WIyWlLk6GJQsqaUBKTNV-1">
          <mxGeometry x="217.01" y="259" width="183" height="77" as="geometry" />
        </mxCell>
        <mxCell id="SKNlaHl48NjNlR1u-PeY-25" style="edgeStyle=orthogonalEdgeStyle;rounded=0;orthogonalLoop=1;jettySize=auto;html=1;exitX=1;exitY=0.5;exitDx=0;exitDy=0;" edge="1" parent="WIyWlLk6GJQsqaUBKTNV-1" source="SKNlaHl48NjNlR1u-PeY-21" target="XrjM6AQatOQEKFj0JOy--3">
          <mxGeometry relative="1" as="geometry" />
        </mxCell>
        <mxCell id="SKNlaHl48NjNlR1u-PeY-21" value="&lt;span style=&quot;font-size: 21px;&quot;&gt;&lt;b&gt;Recording your stats&lt;/b&gt;&lt;/span&gt;" style="ellipse;whiteSpace=wrap;html=1;" vertex="1" parent="WIyWlLk6GJQsqaUBKTNV-1">
          <mxGeometry x="421" y="77" width="183" height="77" as="geometry" />
        </mxCell>
        <mxCell id="SKNlaHl48NjNlR1u-PeY-23" value="&lt;span style=&quot;font-size: 21px;&quot;&gt;&lt;b&gt;Overview of Games&lt;/b&gt;&lt;/span&gt;" style="ellipse;whiteSpace=wrap;html=1;" vertex="1" parent="WIyWlLk6GJQsqaUBKTNV-1">
          <mxGeometry x="302" y="720" width="183" height="77" as="geometry" />
        </mxCell>
        <mxCell id="SKNlaHl48NjNlR1u-PeY-30" value="&lt;font size=&quot;1&quot; style=&quot;&quot;&gt;&lt;b style=&quot;font-size: 21px;&quot;&gt;Create/Manage Games&lt;/b&gt;&lt;/font&gt;" style="ellipse;whiteSpace=wrap;html=1;" vertex="1" parent="WIyWlLk6GJQsqaUBKTNV-1">
          <mxGeometry x="1120" y="367" width="183" height="77" as="geometry" />
        </mxCell>
      </root>
    </mxGraphModel>
  </diagram>
</mxfile>
